<svg width="1600" height="900" viewBox="0 0 1600 900" fill="none" xmlns="http://www.w3.org/2000/svg">
  <rect width="1600" height="900" fill="#F3E5C8"/>
  <g opacity="0.45">
    <path d="M76 334C141 273 232 224 337 215C423 207 530 232 572 282C615 333 606 411 545 438C487 463 401 448 329 454C251 460 165 489 114 454C58 415 29 380 76 334Z" fill="#B38E62"/>
    <path d="M596 256C663 204 789 185 894 205C1000 225 1078 283 1089 356C1100 427 1028 484 934 496C841 508 726 476 650 425C573 374 529 307 596 256Z" fill="#AB8155"/>
    <path d="M1036 220C1109 183 1214 177 1310 208C1403 238 1495 303 1501 375C1506 440 1424 493 1334 501C1243 510 1148 473 1083 420C1018 367 961 259 1036 220Z" fill="#B48C5F"/>
    <path d="M330 566C401 535 477 543 530 580C583 618 610 684 590 739C572 792 512 831 444 832C374 833 308 794 276 732C244 671 262 596 330 566Z" fill="#A5784F"/>
    <path d="M1170 585C1213 550 1288 533 1362 544C1435 555 1494 592 1503 643C1513 696 1475 759 1416 783C1356 808 1275 793 1217 753C1156 713 1127 630 1170 585Z" fill="#A97A4D"/>
    <path d="M1352 192C1380 174 1423 167 1458 177C1494 186 1526 215 1527 248C1529 281 1496 306 1459 312C1420 318 1376 305 1350 280C1323 255 1325 209 1352 192Z" fill="#B48C5F"/>
  </g>
  <g opacity="0.18">
    <path d="M167 170C295 109 441 83 596 91C756 99 904 134 1040 194C1175 254 1291 340 1390 443C1450 505 1503 576 1539 657" stroke="#7B5E3E" stroke-width="2"/>
    <path d="M131 230C264 186 401 165 545 171C776 181 1014 252 1188 369C1280 430 1362 505 1426 590" stroke="#7B5E3E" stroke-width="2"/>
    <path d="M152 702C290 753 431 781 585 783C782 786 998 746 1181 668C1280 626 1374 568 1463 491" stroke="#7B5E3E" stroke-width="2"/>
  </g>
</svg>
